<svg width="96" height="92" viewBox="0 0 96 92" fill="#FCFCFC" xmlns="http://www.w3.org/2000/svg">
<path d="M81.9818 15.5853C81.1056 15.5853 80.2295 15.5853 79.3533 15.7105H79.2282L79.103 15.5853C71.7184 6.07293 60.0782 0.31543 48.0626 0.31543C36.0469 0.31543 24.2816 6.07293 17.0222 15.7105L16.897 15.8356H16.7718C15.8957 15.7105 15.0196 15.7105 14.1434 15.7105H8.63625V25.4732L8.51108 25.5984C3.3794 27.9765 0 33.2333 0 38.9908C0 44.7483 3.3794 50.0051 8.51108 52.3832H8.76141V52.6336C8.88657 74.1616 26.5346 91.6844 48.0626 91.6844C69.5906 91.6844 87.2386 74.1616 87.3638 52.6336V52.3832L87.4889 52.2581C92.6206 49.7548 96 44.498 96 38.8656C96 33.1081 92.6206 27.8513 87.4889 25.4732L87.3638 25.348V15.5853H81.9818ZM27.2855 18.8396C32.7927 13.3324 40.3025 10.2033 48.0626 10.2033C55.8227 10.2033 63.3325 13.3324 68.8396 18.8396L69.09 19.0899L68.7145 19.3402C67.2125 20.2163 65.8357 21.0925 64.4589 22.0938L64.3338 22.219L64.2086 22.0938C60.5789 20.2163 54.8214 18.0886 48.1877 18.0886C41.5541 18.0886 35.7966 20.2163 32.1669 22.0938L32.0417 22.219L31.9166 22.0938C30.5398 21.0925 29.0378 20.0912 27.661 19.3402L26.91 19.0899L27.2855 18.8396ZM76.5997 52.2581C76.5997 68.0286 63.708 80.9204 47.9374 80.9204C32.1669 80.9204 19.4003 68.0286 19.4003 52.2581V27.4758L19.7758 27.601C24.7823 28.8526 29.5385 34.3598 30.6649 35.7366C31.9166 34.3598 37.7992 28.9778 48.0626 28.9778C58.326 28.9778 64.2086 34.4849 65.4602 35.7366C66.5867 34.3598 71.2177 28.8526 76.3494 27.601L76.7249 27.4758V52.2581H76.5997Z" fill="#FCFCFC"/>
</svg>
